<svg xmlns="http://www.w3.org/2000/svg" viewBox="0 0 260 240" role="img" aria-labelledby="title desc">
  <title id="title">Logo Région Guadeloupe</title>
  <desc id="desc">Logo institutionnel Région Guadeloupe, présenté avec un cadrage lisible.</desc>
  <rect width="260" height="240" rx="2" fill="#fff"/>

  <g transform="translate(30 14)">
    <rect x="85" y="0" width="92" height="92" fill="#2fb343"/>
    <circle cx="76" cy="76" r="38" fill="#ffdd00"/>
    <path d="M0 132C58 82 110 38 205 4C142 47 93 91 46 148Z" fill="#1b57bd"/>
    <path d="M20 126C72 83 124 50 194 24C139 62 93 99 52 139Z" fill="#fff"/>
    <path d="M38 126C86 96 129 76 174 68C132 91 96 112 60 139Z" fill="#1b57bd"/>
    <path d="M58 130C98 104 132 88 178 78V96H94Z" fill="#fff"/>
    <path d="M72 130C106 108 136 96 168 88V96H102Z" fill="#2fb343"/>
  </g>

  <g transform="translate(84 174)">
    <text x="0" y="0" fill="#111" font-family="Arial, Helvetica, sans-serif" font-size="21" font-weight="500">REGION</text>
    <text x="0" y="27" fill="#111" font-family="Arial, Helvetica, sans-serif" font-size="21" font-weight="500">GUADELOUPE</text>
    <rect x="0" y="42" width="92" height="5" fill="#ffdd00"/>
  </g>
</svg>
